<svg width="16" height="16" viewBox="0 0 16 16" fill="none" xmlns="http://www.w3.org/2000/svg">
<path d="M15.5 16H12.8333C12.5573 16 12.3333 15.776 12.3333 15.5V14.6666H10.3333V15.5C10.3333 15.776 10.1093 16 9.83333 16H6.16667C5.89067 16 5.66667 15.776 5.66667 15.5V14.6666H3.66667V15.5C3.66667 15.776 3.44267 16 3.16667 16H0.5C0.224 16 0 15.776 0 15.5V13.3333H16V15.5C16 15.776 15.776 16 15.5 16Z" fill="#737B80"/>
<path d="M10.6667 0H8.66675V1.33333C8.66675 1.70133 8.36808 2 8.00008 2C7.63208 2 7.33341 1.70133 7.33341 1.33333V0H5.33341C4.96541 0 4.66675 0.298667 4.66675 0.666667V4.66667C4.66675 5.03467 4.96541 5.33333 5.33341 5.33333H10.6667C11.0347 5.33333 11.3334 5.03467 11.3334 4.66667V0.666667C11.3334 0.298667 11.0347 0 10.6667 0Z" fill="#737B80"/>
<path d="M6.66675 6.66669H4.66675V8.00002C4.66675 8.36802 4.36808 8.66669 4.00008 8.66669C3.63208 8.66669 3.33341 8.36802 3.33341 8.00002V6.66669H1.33341C0.965415 6.66669 0.666748 6.96535 0.666748 7.33335V11.3334C0.666748 11.7014 0.965415 12 1.33341 12H6.66675C7.03475 12 7.33342 11.7014 7.33342 11.3334V7.33335C7.33342 6.96535 7.03475 6.66669 6.66675 6.66669Z" fill="#737B80"/>
<path d="M14.6667 6.66669H12.6667V8.00002C12.6667 8.36802 12.3681 8.66669 12.0001 8.66669C11.6321 8.66669 11.3334 8.36802 11.3334 8.00002V6.66669H9.33341C8.96541 6.66669 8.66675 6.96535 8.66675 7.33335V11.3334C8.66675 11.7014 8.96541 12 9.33341 12H14.6667C15.0347 12 15.3334 11.7014 15.3334 11.3334V7.33335C15.3334 6.96535 15.0347 6.66669 14.6667 6.66669Z" fill="#737B80"/>
</svg>
