<svg width="16" height="16" viewBox="0 0 16 16" fill="none" xmlns="http://www.w3.org/2000/svg">
<path d="M8.7083 0C3.89551 0 0 3.89485 0 8.7083C0 8.96742 0.210063 9.17749 0.469188 9.17749H8.7083C8.96742 9.17749 9.17749 8.96742 9.17749 8.7083V0.469188C9.17749 0.210063 8.96742 0 8.7083 0Z" fill="#737B80"/>
<path d="M5.3703 10.534C5.28798 10.3837 5.1302 10.2902 4.95883 10.2902H2.18401C2.03467 10.2902 1.8942 10.3613 1.80582 10.4818C1.71741 10.6022 1.69166 10.7574 1.73638 10.8999C2.6201 13.7146 5.16905 15.8072 8.23921 16V12.4831C7.03502 12.3337 5.9628 11.6157 5.3703 10.534Z" fill="#737B80"/>
<path d="M10.9 1.7363C10.7575 1.69161 10.6022 1.71739 10.4818 1.80573C10.3614 1.89414 10.2903 2.03458 10.2903 2.18395V4.95874C10.2903 5.13008 10.3838 5.28783 10.534 5.37018C11.6157 5.96274 12.3337 7.03493 12.4832 8.23909H16.0001C15.8068 5.16227 13.708 2.61795 10.9 1.7363Z" fill="#737B80"/>
<path d="M12.4837 9.17743C12.2708 10.9008 10.9009 12.2708 9.17749 12.4836V15.9996C12.8385 15.7692 15.7689 12.8435 15.9997 9.17743H12.4837Z" fill="#737B80"/>
</svg>
