<svg width="16" height="14" viewBox="0 0 16 14" fill="none" xmlns="http://www.w3.org/2000/svg">
<path d="M8.00008 6.65142C9.51223 6.65142 10.7382 5.16244 10.7382 3.32573C10.7382 1.48899 10.3356 0 8.00008 0C5.66445 0 5.26196 1.48899 5.26196 3.32573C5.262 5.16244 6.48793 6.65142 8.00008 6.65142Z" fill="#737B80"/>
<path d="M13.1658 11.5951C13.1152 8.39542 12.6973 7.4837 9.49957 6.90656C9.49957 6.90656 9.04936 7.48012 8.0002 7.48012C6.95104 7.48012 6.50091 6.90656 6.50091 6.90656C3.33805 7.47736 2.89468 8.3756 2.8364 11.4911C2.83166 11.7455 2.82948 11.7589 2.82861 11.7293C2.82878 11.7847 2.82903 11.887 2.82903 12.0655C2.82903 12.0655 3.59036 13.6002 8.00024 13.6002C12.4101 13.6002 13.1715 12.0655 13.1715 12.0655C13.1715 11.9508 13.1716 11.871 13.1717 11.8168C13.1708 11.8351 13.1691 11.7997 13.1658 11.5951Z" fill="#737B80"/>
<path d="M11.7998 6.05763C13.028 6.05763 14.0236 4.84831 14.0236 3.35656C14.0236 1.86477 13.6967 0.655457 11.7998 0.655457C11.4807 0.655457 11.2061 0.689787 10.97 0.753873C11.4081 1.56157 11.4681 2.5426 11.4681 3.3257C11.4681 4.21235 11.2278 5.05887 10.7852 5.75978C11.0894 5.94977 11.4341 6.05763 11.7998 6.05763Z" fill="#737B80"/>
<path d="M15.9953 10.0728C15.954 7.47407 15.6147 6.73359 13.0175 6.26483C13.0175 6.26483 12.6519 6.7307 11.7998 6.7307C11.7646 6.7307 11.7304 6.72963 11.6968 6.72811C12.2382 6.97221 12.7307 7.3121 13.0934 7.80946C13.7205 8.66929 13.8647 9.82432 13.8944 11.5212C15.6417 11.1759 15.9998 10.4549 15.9998 10.4549C15.9998 10.3609 15.9998 10.2965 16 10.2524C15.9993 10.2679 15.9979 10.2401 15.9953 10.0728Z" fill="#737B80"/>
<path d="M4.20005 6.05765C4.56574 6.05765 4.9104 5.94979 5.21476 5.75984C4.77213 5.05893 4.53178 4.21241 4.53178 3.32576C4.53178 2.54262 4.59183 1.56159 5.02988 0.753934C4.79373 0.689848 4.51921 0.655518 4.20005 0.655518C2.30314 0.655518 1.97632 1.86483 1.97632 3.35662C1.97632 4.84833 2.97194 6.05765 4.20005 6.05765Z" fill="#737B80"/>
<path d="M4.30314 6.72811C4.2696 6.72963 4.23543 6.7307 4.20011 6.7307C3.34799 6.7307 2.98239 6.26483 2.98239 6.26483C0.385301 6.73359 0.0458702 7.47402 0.00473951 10.0728C0.00206066 10.2402 0.000700623 10.2679 0 10.2524C8.24262e-05 10.2964 0.000164852 10.3609 0.000164852 10.4548C0.000164852 10.4548 0.358307 11.1759 2.1055 11.5212C2.13537 9.82433 2.27946 8.66929 2.9066 7.80942C3.26927 7.31214 3.76173 6.97221 4.30314 6.72811Z" fill="#737B80"/>
</svg>
