<svg width="15" height="16" viewBox="0 0 15 16" fill="none" xmlns="http://www.w3.org/2000/svg">
<path d="M13.6555 6.64306L7.41526 0.401889C7.04722 0.034763 6.45188 0.0391067 6.08866 0.40142C5.72338 0.767639 5.72338 1.36227 6.08866 1.72802L12.3298 7.96875C12.6955 8.33437 13.2899 8.33437 13.6555 7.96875C14.0221 7.60212 14.0221 7.00962 13.6555 6.64306Z" fill="#737B80"/>
<path d="M5.62561 2.59076L5.57864 2.8262C5.2478 4.48114 4.44373 6.05336 3.3562 7.32764L6.75143 10.7229C8.02555 9.63555 9.57612 8.8099 11.2311 8.47865L11.467 8.43168L5.62561 2.59076Z" fill="#737B80"/>
<path d="M2.73248 8.03088L0.412068 10.3508C-0.136215 10.8991 -0.138496 11.7892 0.412068 12.3398L1.73776 13.6655C2.28604 14.2138 3.17617 14.216 3.72673 13.6655L6.04692 11.3453L2.73248 8.03088ZM3.06392 11.677C2.88082 11.8601 2.58417 11.8601 2.40107 11.677C2.21798 11.4939 2.21798 11.1972 2.40107 11.0141L3.06392 10.3513C3.24701 10.1682 3.54367 10.1682 3.72676 10.3513C3.90986 10.5344 3.90986 10.831 3.72676 11.0141L3.06392 11.677Z" fill="#737B80"/>
<path d="M8.00366 13.915L8.64132 13.2773C9.19192 12.7268 9.1901 11.8367 8.64135 11.2889L8.16773 10.8149C7.90594 10.9907 7.65594 11.1818 7.41288 11.3857L7.97851 11.9521C8.16116 12.1339 8.16245 12.4296 7.97851 12.6145L7.33032 13.2627L6.37775 12.3398L5.052 13.6655L7.17879 15.7264C7.54173 16.0903 8.13763 16.0923 8.50401 15.7259C8.86976 15.3602 8.86976 14.7655 8.50401 14.3998L8.00366 13.915Z" fill="#737B80"/>
<path d="M9.89575 0C9.63666 0 9.427 0.209657 9.427 0.468751V1.40625C9.427 1.66535 9.63666 1.875 9.89575 1.875C10.1548 1.875 10.3645 1.66535 10.3645 1.40625V0.468751C10.3645 0.209657 10.1548 0 9.89575 0Z" fill="#737B80"/>
<path d="M13.6458 3.75H12.7083C12.4492 3.75 12.2395 3.95966 12.2395 4.21875C12.2395 4.47785 12.4492 4.6875 12.7083 4.6875H13.6458C13.9048 4.6875 14.1145 4.47785 14.1145 4.21875C14.1145 3.95966 13.9048 3.75 13.6458 3.75Z" fill="#737B80"/>
<path d="M13.0397 1.07482C12.8566 0.891726 12.5599 0.891726 12.3768 1.07482L11.4393 2.01232C11.2562 2.19542 11.2562 2.49207 11.4393 2.67517C11.6224 2.85826 11.9191 2.85829 12.1022 2.67517L13.0397 1.73767C13.2228 1.55457 13.2228 1.25791 13.0397 1.07482Z" fill="#737B80"/>
</svg>
