<svg width="133" height="14" viewBox="0 6 133 12" fill="none" xmlns="http://www.w3.org/2000/svg">
<path d="M6.00892 5.00226C10.399 5.00226 13.4535 7.85676 13.4535 11.988C13.4535 16.1002 10.3588 18.9743 5.88759 18.9743H0.000976562V5L6.00892 5.00226ZM3.19756 16.3214H6.09058C8.45722 16.3214 10.1964 14.5649 10.1964 12.0099C10.1964 9.4349 8.37602 7.65874 5.94894 7.65874H3.19756V16.3214Z" fill="white"/>
<path d="M15.5557 18.975V5.00071H18.7527V18.975H15.5557Z" fill="white"/>
<path d="M31.7993 18.975L24.9397 10.0123V18.9745H21.8848V5.00026H24.8013L31.6793 13.982V5.00252H34.714V18.9768L31.7993 18.975Z" fill="white"/>
<path d="M64.6458 16.2598L63.5339 18.9745H60.2363L66.3854 5.00026H69.683L75.7316 18.9745H72.3122L71.2004 16.2598H64.6458ZM67.9434 8.294L65.698 13.723H70.1665L67.9434 8.294Z" fill="white"/>
<path d="M83.6601 14.9825H80.4031V18.9745H77.2056V5.00026H83.3565C87.0578 5.00026 89.1615 6.75682 89.1615 9.85074C89.1615 12.0061 88.2315 13.5628 86.5116 14.3617L89.5255 18.9727H85.9049L83.6601 14.9825ZM83.3565 12.3475C85.1156 12.3475 86.1278 11.5495 86.1278 9.95225C86.1278 8.39551 85.1156 7.61713 83.3565 7.61713H80.404V12.3479L83.3565 12.3475Z" fill="white"/>
<path d="M97.0914 13.286L95.0472 15.5215V18.9745H91.8516V5.00026H95.0472V11.3474L100.935 5.00026H104.637L99.3169 10.8267L105 18.9704H101.156L97.0914 13.286Z" fill="white"/>
<path d="M59.385 6.5001L57.2167 5.00253L49.8104 12.1595L52.2984 6.50056L50.1301 5.00253L42.5814 12.2951L45.0536 6.45913L42.9846 5.03075H38.4174V7.69497H41.6079L37.4453 17.492L39.6196 18.9745L47.0148 11.8194L44.5342 17.4765L46.7024 18.9741L54.1027 11.8153L51.6143 17.5462L53.6833 18.9745H58.2505V16.3103H55.0803L59.385 6.5001Z" fill="#01AADF"/>
<path d="M117.248 11.08C117.248 11.872 117 12.492 116.504 12.94C116.008 13.38 115.368 13.6 114.584 13.6H110.864V5.056H114.404C115.276 5.056 115.948 5.28 116.42 5.728C116.892 6.176 117.128 6.776 117.128 7.528C117.128 8.232 116.816 8.796 116.192 9.22C116.32 9.3 116.428 9.376 116.516 9.448C116.604 9.512 116.712 9.62 116.84 9.772C116.968 9.916 117.068 10.1 117.14 10.324C117.212 10.548 117.248 10.8 117.248 11.08ZM114.956 11.5C115.084 11.348 115.148 11.168 115.148 10.96C115.148 10.752 115.084 10.576 114.956 10.432C114.836 10.288 114.644 10.216 114.38 10.216H112.964V11.716H114.38C114.644 11.716 114.836 11.644 114.956 11.5ZM114.848 8.128C114.968 7.992 115.028 7.828 115.028 7.636C115.028 7.444 114.968 7.28 114.848 7.144C114.728 7.008 114.536 6.94 114.272 6.94H112.964V8.332H114.272C114.536 8.332 114.728 8.264 114.848 8.128ZM123.972 13.6H118.476V11.824L121.572 8.464C121.86 8.152 122.004 7.848 122.004 7.552C122.004 7.312 121.936 7.12 121.8 6.976C121.672 6.832 121.484 6.76 121.236 6.76C121.02 6.76 120.832 6.824 120.672 6.952C120.52 7.08 120.444 7.292 120.444 7.588H118.476C118.476 6.78 118.74 6.144 119.268 5.68C119.804 5.216 120.46 4.984 121.236 4.984C122.044 4.984 122.7 5.216 123.204 5.68C123.716 6.144 123.972 6.772 123.972 7.564C123.972 7.98 123.892 8.332 123.732 8.62C123.572 8.908 123.3 9.256 122.916 9.664L120.876 11.824H123.972V13.6ZM131.756 11.08C131.756 11.872 131.508 12.492 131.012 12.94C130.516 13.38 129.876 13.6 129.092 13.6H125.372V5.056H128.912C129.784 5.056 130.456 5.28 130.928 5.728C131.4 6.176 131.636 6.776 131.636 7.528C131.636 8.232 131.324 8.796 130.7 9.22C130.828 9.3 130.936 9.376 131.024 9.448C131.112 9.512 131.22 9.62 131.348 9.772C131.476 9.916 131.576 10.1 131.648 10.324C131.72 10.548 131.756 10.8 131.756 11.08ZM129.464 11.5C129.592 11.348 129.656 11.168 129.656 10.96C129.656 10.752 129.592 10.576 129.464 10.432C129.344 10.288 129.152 10.216 128.888 10.216H127.472V11.716H128.888C129.152 11.716 129.344 11.644 129.464 11.5ZM129.356 8.128C129.476 7.992 129.536 7.828 129.536 7.636C129.536 7.444 129.476 7.28 129.356 7.144C129.236 7.008 129.044 6.94 128.78 6.94H127.472V8.332H128.78C129.044 8.332 129.236 8.264 129.356 8.128Z" fill="#2EA8E6"/>
</svg>
